<?xml version="1.0" encoding="utf-8"?>
<!-- Generator: Adobe Illustrator 27.6.1, SVG Export Plug-In . SVG Version: 6.00 Build 0)  -->
<svg version="1.1" id="Слой_1" xmlns="http://www.w3.org/2000/svg" xmlns:xlink="http://www.w3.org/1999/xlink" x="0px" y="0px"
	 viewBox="0 0 127.08 65.4" style="enable-background:new 0 0 127.08 65.4;" xml:space="preserve">
<style type="text/css">
	.st0{fill:#58AA63;}
	.st1{fill:#FFFFFF;}
	.st2{fill:none;}
</style>
<path class="st0" d="M23.15,10.86c-0.51,0.33-1.07,0.61-1.52,1c-0.8,0.69-1.53,1.44-2.29,2.18c-0.38,0.38-0.76,0.76-1.11,1.16
	c-0.33,0.37-0.63,0.77-0.92,1.17c-0.45,0.63-0.85,1.31-1.33,1.92c-0.84,1.06-1.76,2.06-2.87,2.84c-0.64,0.45-1.29,0.91-1.99,1.24
	c-1.68,0.77-3.43,0.91-5.21,0.36c-1.53-0.48-2.73-1.37-3.61-2.74c-0.43-0.67-0.61-1.35-0.57-2.11c0.04-0.86,0.73-1.53,1.8-1.73
	c0.7-0.13,1.39-0.13,2.02,0.29c0.14,0.09,0.29,0.18,0.39,0.31c0.26,0.36,0.55,0.72,0.74,1.12c0.88,1.91,1.94,2.09,3.74,1.87
	c1.28-0.15,2.42-0.71,3.43-1.5c0.89-0.7,1.72-1.46,2.59-2.18c0.67-0.55,1.12-1.24,1.57-1.97c0.6-0.98,1.25-1.94,1.93-2.87
	c0.41-0.56,0.89-1.09,1.41-1.57c1.22-1.14,2.84-1.29,4.16-0.24c0.54,0.43,0.98,0.43,1.57,0.25c2.15-0.67,4.31-1.31,6.47-1.95
	c3.09-0.92,6.17-1.85,9.26-2.77c2-0.6,4.01-1.18,6.01-1.78c1.59-0.48,3.13-0.28,4.69,0.19c1.87,0.57,3.76,1.08,5.64,1.63
	c1.57,0.45,3.14,0.92,4.71,1.37c2.43,0.7,4.86,1.39,7.29,2.09c1.81,0.52,3.61,1.05,5.42,1.57c2.15,0.62,4.31,1.24,6.46,1.87
	c1.87,0.54,3.74,1.08,5.61,1.62c2.35,0.68,4.7,1.36,7.05,2.04c2.5,0.72,5,1.45,7.5,2.17c2.34,0.67,4.68,1.34,7.02,2.02
	c2.17,0.63,4.33,1.26,6.5,1.89c1.47,0.43,2.95,0.83,4.41,1.3c1.12,0.35,2.07,0.99,2.69,2.01c0.2,0.33,0.31,0.79,0.28,1.18
	c-0.05,0.59-0.27,1.17-0.41,1.75c-0.13,0.53-0.26,1.05-0.39,1.58c-0.26,1.02-0.52,2.04-0.78,3.06c-0.42,1.66-0.84,3.32-1.26,4.98
	c-0.29,1.13-0.57,2.27-0.86,3.4c-0.28,1.11-0.57,2.22-0.86,3.32c-0.28,1.07-0.56,2.14-0.83,3.21c-0.29,1.12-0.58,2.24-0.87,3.36
	c-0.25,0.96-0.5,1.92-0.74,2.87c-0.29,1.1-0.57,2.21-0.86,3.31c-0.22,0.84-0.38,1.71-0.7,2.51c-0.26,0.64-0.72,1.2-1.13,1.76
	c-0.23,0.32-0.5,0.64-0.82,0.86c-1.4,0.95-2.93,0.95-4.48,0.43c-2.14-0.71-4.26-1.46-6.4-2.19c-2.18-0.74-4.37-1.46-6.55-2.19
	c-2.16-0.73-4.32-1.46-6.47-2.19c-1.51-0.51-3.02-1.02-4.54-1.54c-2.28-0.78-4.56-1.55-6.84-2.33c-1.79-0.61-3.59-1.22-5.38-1.83
	c-2.28-0.78-4.56-1.56-6.84-2.33c-1.99-0.67-3.98-1.34-5.96-2.01c-2.28-0.77-4.56-1.55-6.84-2.32c-2.02-0.68-4.05-1.35-6.08-2.03
	c-1.89-0.64-3.77-1.3-5.66-1.94c-2.74-0.93-5.49-1.85-8.24-2.77c-1.27-0.43-2.54-0.84-3.79-1.3c-1.26-0.46-2.18-1.26-2.48-2.66
	c-0.27-1.3-0.63-2.58-0.95-3.87c-0.27-1.08-0.54-2.15-0.81-3.22c-0.29-1.16-0.59-2.33-0.88-3.49c-0.28-1.1-0.56-2.2-0.83-3.3
	c-0.28-1.13-0.55-2.26-0.83-3.38c-0.15-0.6-0.3-1.2-0.48-1.79c-0.29-0.97-0.08-1.79,0.69-2.47c0.12-0.11,0.22-0.24,0.33-0.36
	C23.22,10.94,23.18,10.9,23.15,10.86z M26.64,11.44c-0.27-0.42-0.27-0.42-0.73-0.28c-0.28,0.09-0.59,0.15-0.84,0.3
	c-0.95,0.57-1.3,0.93-0.99,1.94c0.09,0.29,0.2,0.58,0.28,0.88c0.31,1.15,0.6,2.29,0.9,3.44c0.27,1.02,0.54,2.04,0.81,3.06
	c0.31,1.2,0.63,2.39,0.93,3.59c0.26,1.02,0.52,2.05,0.78,3.07c0.3,1.16,0.65,2.31,0.9,3.48c0.19,0.88,0.76,1.38,1.52,1.66
	c1.2,0.45,2.42,0.83,3.64,1.23c2.99,1,5.98,2.01,8.97,3.01c3.52,1.17,7.04,2.34,10.56,3.51c3.15,1.05,6.3,2.1,9.45,3.16
	c2.23,0.75,4.46,1.5,6.69,2.24c3.1,1.04,6.2,2.07,9.31,3.11c3.97,1.33,7.95,2.65,11.92,3.98c2.73,0.91,5.47,1.84,8.2,2.75
	c3.65,1.22,7.31,2.44,10.96,3.66c0.61,0.2,1.22,0.45,1.89,0.34c0.63-0.1,1.22-0.29,1.5-0.95c0.14-0.33,0.26-0.67,0.35-1.01
	c0.29-1.03,0.56-2.06,0.84-3.09c0.3-1.12,0.61-2.23,0.91-3.35c0.28-1.04,0.54-2.09,0.82-3.14c0.28-1.04,0.56-2.09,0.85-3.13
	c0.26-0.94,0.52-1.88,0.77-2.83c0.29-1.06,0.57-2.11,0.86-3.17c0.31-1.16,0.62-2.31,0.93-3.47c0.25-0.94,0.52-1.89,0.77-2.83
	c0.34-1.27,0.66-2.54,0.99-3.81c0.2-0.77,0.32-1.58,0.62-2.32c0.45-1.12,0.2-1.67-0.86-2.32c-0.34-0.21-0.77-0.29-1.16-0.41
	c-1.55-0.46-3.1-0.92-4.65-1.37c-2.43-0.71-4.86-1.42-7.3-2.12c-2.26-0.65-4.52-1.3-6.78-1.95c-2.15-0.62-4.29-1.26-6.44-1.88
	c-2.37-0.69-4.74-1.37-7.12-2.06c-1.9-0.55-3.8-1.1-5.7-1.65c-1.8-0.52-3.6-1.03-5.4-1.56c-1.82-0.53-3.64-1.08-5.47-1.61
	C69,8.92,66.88,8.32,64.75,7.71c-1.83-0.53-3.65-1.07-5.47-1.6c-2.4-0.69-4.8-1.37-7.19-2.07c-0.66-0.19-1.33-0.27-1.99-0.12
	c-0.84,0.19-1.68,0.43-2.51,0.68c-1.81,0.54-3.61,1.1-5.42,1.65C39.78,6.96,37.39,7.66,35,8.38c-1.91,0.57-3.81,1.15-5.72,1.73
	c-0.72,0.22-1.43,0.44-2.15,0.67c0.14,0.4,0.37,0.51,0.76,0.37c0.56-0.2,1.14-0.35,1.71-0.52c2.81-0.84,5.62-1.68,8.43-2.53
	c3.56-1.08,7.13-2.17,10.68-3.26c1.16-0.36,2.26-0.64,3.51-0.23c2.67,0.87,5.38,1.59,8.07,2.38C63,7.77,65.7,8.55,68.39,9.34
	c3.32,0.96,6.63,1.92,9.95,2.88c1.5,0.44,3,0.89,4.5,1.32c3.02,0.87,6.04,1.74,9.06,2.62c2.07,0.6,4.14,1.22,6.22,1.82
	c3.04,0.88,6.09,1.76,9.13,2.64c1.79,0.52,3.57,1.05,5.36,1.57c2.6,0.75,5.2,1.48,7.79,2.25c0.62,0.18,1.28,0.82,0.72,1.65
	c-0.05,0.07-0.06,0.17-0.08,0.26c-0.28,1.04-0.55,2.09-0.84,3.13c-0.28,1.03-0.57,2.06-0.85,3.09c-0.29,1.06-0.59,2.11-0.88,3.17
	c-0.28,1.01-0.55,2.01-0.83,3.02c-0.26,0.94-0.53,1.88-0.79,2.83c-0.28,1.02-0.56,2.04-0.84,3.05c-0.3,1.09-0.59,2.19-0.88,3.28
	c-0.27,0.99-0.54,1.99-0.82,2.98c-0.3,1.11-0.61,2.21-0.91,3.32c-0.35,1.27-0.68,2.54-1.05,3.8c-0.07,0.22-0.26,0.51-0.46,0.57
	c-0.37,0.11-0.81,0.17-1.16,0.06c-1.26-0.37-2.5-0.83-3.75-1.25c-1.47-0.5-2.94-0.99-4.41-1.48c-2.4-0.8-4.81-1.59-7.21-2.39
	c-1.57-0.52-3.13-1.07-4.7-1.59c-2.48-0.83-4.96-1.64-7.43-2.46c-1.78-0.59-3.55-1.2-5.33-1.79c-2.4-0.8-4.81-1.59-7.21-2.39
	c-1.56-0.52-3.11-1.06-4.66-1.58c-1.89-0.63-3.78-1.24-5.67-1.87c-1.86-0.62-3.73-1.24-5.59-1.86c-1.84-0.61-3.68-1.22-5.52-1.84
	c-1.78-0.59-3.55-1.2-5.33-1.79c-2.39-0.8-4.79-1.58-7.18-2.38c-1.93-0.64-3.85-1.28-5.77-1.94c-0.52-0.18-1.06-0.39-1.25-1
	c-0.17-0.55-0.33-1.11-0.49-1.66c-0.27-0.98-0.53-1.96-0.79-2.95c-0.29-1.07-0.57-2.14-0.86-3.21c-0.3-1.13-0.59-2.27-0.89-3.4
	c-0.42-1.6-0.83-3.19-1.25-4.79c-0.18-0.67-0.39-1.33-0.57-2c-0.1-0.39-0.06-0.76,0.36-0.96C25.7,11.85,26.16,11.65,26.64,11.44z
	 M98.1,44.17c0.66-0.06,1.29-0.08,1.9-0.17c0.74-0.12,1.42-0.44,1.9-1.03c0.74-0.92,0.68-2.3-0.12-3.19
	c-0.72-0.81-1.6-1.43-2.62-1.8c-1.64-0.58-3.31-1.1-4.96-1.66c-0.23-0.08-0.35-0.04-0.44,0.2c-0.24,0.64-0.51,1.26-0.76,1.89
	c-0.58,1.42-1.16,2.83-1.72,4.25c-0.46,1.17-0.9,2.36-1.36,3.53c-0.07,0.19-0.18,0.37-0.28,0.58c0.8,0.26,1.56,0.49,2.3,0.74
	c0.27,0.09,0.38-0.02,0.46-0.25c0.43-1.16,0.87-2.31,1.3-3.47c0.28-0.76,0.19-0.77,0.95-0.49c0.13,0.05,0.28,0.05,0.41,0.11
	c0.09,0.04,0.2,0.13,0.24,0.22c0.46,0.97,0.92,1.95,1.37,2.93c0.42,0.9,0.82,1.81,1.25,2.7c0.05,0.12,0.16,0.25,0.27,0.29
	c0.53,0.2,1.08,0.37,1.62,0.54c0.42,0.14,0.85,0.27,1.27,0.4c0.02-0.03,0.04-0.05,0.07-0.08c-0.17-0.33-0.34-0.65-0.5-0.98
	c-0.48-1.01-0.95-2.03-1.43-3.04c-0.03-0.06-0.06-0.12-0.09-0.17C98.79,45.55,98.45,44.86,98.1,44.17z M51.13,34.08
	c1.68,0.01,3.26-0.37,4.73-1.18c1.11-0.62,2.04-1.48,2.59-2.63c0.71-1.48,0.69-2.95-0.31-4.35c-0.65-0.91-1.49-1.55-2.51-1.97
	c-1.64-0.68-3.35-0.87-5.1-0.6c-1.32,0.2-2.58,0.6-3.7,1.39c-0.96,0.68-1.72,1.53-2.2,2.58c-0.53,1.18-0.53,2.38,0.12,3.57
	c0.39,0.71,0.92,1.29,1.55,1.75C47.74,33.66,49.39,34.06,51.13,34.08z M83.18,32.88c-0.43,0.87-0.85,1.7-1.24,2.54
	c-0.58,1.22-1.14,2.44-1.7,3.67c-0.48,1.05-0.95,2.11-1.44,3.16c-0.13,0.27-0.28,0.53-0.44,0.82c2.91,0.95,5.75,1.88,8.62,2.83
	c0.26-0.59,0.5-1.15,0.76-1.74c-2.07-0.67-4.07-1.31-6.1-1.96c0.31-0.67,0.59-1.29,0.87-1.91c0.12-0.26,0.22-0.52,0.34-0.78
	c0.1-0.21,0.24-0.31,0.49-0.22c0.35,0.13,0.72,0.22,1.07,0.33c1.11,0.36,2.21,0.72,3.32,1.06c0.13,0.04,0.39,0.02,0.42-0.04
	c0.22-0.46,0.39-0.94,0.58-1.45c-1.69-0.55-3.34-1.08-4.97-1.61c0.36-0.79,0.71-1.58,1.08-2.39c0.7,0.21,1.34,0.4,1.98,0.6
	c1.18,0.37,2.36,0.76,3.55,1.12c0.1,0.03,0.33-0.04,0.36-0.11c0.19-0.43,0.34-0.88,0.52-1.37C88.54,34.58,85.87,33.74,83.18,32.88z
	 M103.77,34.7c-0.02-0.16-0.02-0.27-0.05-0.36c-0.16-0.58-0.33-1.16-0.49-1.74c-0.27-1.02-0.53-2.04-0.8-3.06
	c-0.31-1.18-0.62-2.36-0.92-3.55c-0.21-0.83-0.39-1.66-0.58-2.49c-0.07-0.3-0.22-0.32-0.45-0.17c-0.36,0.24-0.72,0.49-1.08,0.74
	c-0.64,0.45-1.28,0.9-1.93,1.35c-1.28,0.88-2.57,1.76-3.85,2.64c-0.77,0.53-1.55,1.06-2.32,1.6c-0.36,0.26-0.71,0.53-1.13,0.85
	c0.72,0.23,1.38,0.43,2.04,0.65c0.28,0.09,0.5,0.07,0.73-0.14c0.26-0.24,0.56-0.46,0.87-0.64c0.31-0.18,0.55-0.49,1.03-0.34
	c1.84,0.6,3.7,1.14,5.55,1.72c0.12,0.04,0.25,0.19,0.28,0.31c0.15,0.52,0.26,1.05,0.42,1.56c0.04,0.13,0.17,0.3,0.3,0.34
	C102.16,34.22,102.93,34.44,103.77,34.7z M81.05,32.22c-2.69-0.84-5.35-1.67-7.99-2.49c-0.17,0.27-0.34,0.5-0.47,0.75
	c-0.56,1.05-1.12,2.11-1.67,3.16c-0.75,1.43-1.5,2.87-2.25,4.31c-0.06,0.12-0.16,0.23-0.23,0.35c-0.22,0.42-0.42,0.85-0.66,1.32
	c0.81,0.27,1.57,0.53,2.33,0.77c0.07,0.02,0.23-0.09,0.28-0.17c0.28-0.49,0.54-0.99,0.8-1.49c0.4-0.8,0.81-1.61,1.18-2.43
	c0.15-0.33,0.32-0.35,0.62-0.25c1.47,0.49,2.95,0.96,4.42,1.45c0.21,0.07,0.37,0.03,0.45-0.14c0.22-0.43,0.4-0.88,0.61-1.36
	c-1.74-0.55-3.41-1.08-5.1-1.61c0.44-0.83,0.85-1.62,1.25-2.39c0.11,0.02,0.15,0.02,0.19,0.03c1.72,0.55,3.45,1.1,5.18,1.63
	c0.13,0.04,0.4,0,0.45-0.09C80.67,33.14,80.84,32.7,81.05,32.22z M57.4,36.22c0.7,0.23,1.35,0.4,1.97,0.66
	c0.4,0.17,0.59,0.02,0.76-0.29c0.68-1.18,1.36-2.36,2.01-3.56c0.17-0.32,0.33-0.37,0.66-0.26c1.43,0.48,2.87,0.94,4.31,1.4
	c0.09,0.03,0.27,0.03,0.31-0.02c0.28-0.45,0.54-0.91,0.85-1.44c-1.72-0.54-3.35-1.06-5.01-1.58c0.47-0.78,0.92-1.55,1.38-2.33
	c0.62,0.2,1.21,0.38,1.8,0.57c1.16,0.37,2.31,0.74,3.47,1.1c0.11,0.03,0.31,0.03,0.34-0.03c0.25-0.44,0.47-0.9,0.71-1.38
	c-0.19-0.07-0.31-0.12-0.43-0.16c-1.79-0.56-3.57-1.12-5.36-1.68c-0.59-0.18-1.18-0.37-1.78-0.53c-0.11-0.03-0.31,0.03-0.37,0.11
	c-0.24,0.32-0.44,0.66-0.64,1c-0.56,0.95-1.13,1.9-1.68,2.85c-0.47,0.8-0.93,1.6-1.4,2.4c-0.03,0.06-0.07,0.11-0.1,0.17
	C58.61,34.21,58.02,35.19,57.4,36.22z M85.85,26.16c-0.26,0.05-0.42,0.08-0.58,0.12c-2.03,0.48-3.99,0.36-5.76-0.85
	c-1.03-0.7-1.71-1.79-1.25-3.17c0.37-1.13,1.17-1.85,2.28-2.24c1.18-0.43,2.38-0.41,3.59-0.12c1.23,0.29,2.25,0.88,2.97,1.94
	c0.05,0.08,0.15,0.12,0.23,0.19c0.32-0.49,0.64-0.94,0.92-1.41c0.05-0.08,0-0.28-0.07-0.35c-0.27-0.24-0.56-0.46-0.86-0.65
	c-2.08-1.28-4.33-1.81-6.75-1.4c-1.75,0.3-3.3,0.96-4.31,2.57c-0.56,0.9-0.76,1.83-0.58,2.84c0.24,1.37,1.11,2.31,2.23,3.06
	c1.99,1.33,4.2,1.72,6.55,1.49c0.13-0.01,0.31-0.06,0.36-0.16C85.16,27.43,85.48,26.84,85.85,26.16z M76.86,16.44
	c-0.68-0.19-1.3-0.36-1.92-0.54c-1.68-0.5-3.37-1-5.05-1.49c-0.1-0.03-0.26,0-0.32,0.07c-0.15,0.15-0.27,0.34-0.38,0.53
	c-0.57,0.93-1.14,1.86-1.7,2.8c-0.75,1.26-1.48,2.53-2.22,3.79c-0.2,0.34-0.42,0.66-0.66,1.02c0.15,0.07,0.24,0.12,0.33,0.14
	c1.4,0.43,2.79,0.85,4.19,1.28c0.96,0.29,1.93,0.59,2.89,0.88c0.09,0.03,0.27,0.03,0.3-0.03c0.26-0.41,0.49-0.83,0.74-1.29
	c-1.81-0.56-3.58-1.11-5.4-1.67c0.41-0.69,0.82-1.32,1.16-1.98c0.19-0.36,0.38-0.42,0.75-0.3c1.24,0.4,2.5,0.77,3.75,1.13
	c0.11,0.03,0.33-0.01,0.38-0.1c0.22-0.35,0.39-0.73,0.6-1.14c-1.49-0.46-2.96-0.9-4.43-1.35c0.32-0.56,0.64-1.08,0.92-1.63
	c0.15-0.3,0.3-0.33,0.6-0.23c1.52,0.48,3.04,0.93,4.57,1.38c0.1,0.03,0.29-0.04,0.34-0.12C76.5,17.24,76.66,16.87,76.86,16.44z
	 M54.43,19.52c0.76,0.22,1.43,0.43,2.12,0.61c0.09,0.02,0.26-0.09,0.32-0.19c0.43-0.66,0.83-1.33,1.26-1.99
	c0.19-0.29,0.38-0.58,0.59-0.85c0.06-0.07,0.23-0.1,0.32-0.08c0.44,0.11,0.87,0.26,1.3,0.37c1.56,0.4,3.13,0.6,4.69,0
	c0.96-0.37,1.66-1.11,1.67-2.02c0.01-1.17-0.74-1.76-1.64-2.23c-1.56-0.81-3.3-1.1-4.95-1.64c-0.11-0.04-0.33,0.05-0.4,0.15
	c-0.54,0.75-1.06,1.51-1.57,2.28c-0.76,1.15-1.51,2.3-2.26,3.45c-0.04,0.06-0.09,0.13-0.13,0.19C55.33,18.2,54.91,18.82,54.43,19.52
	z M57.09,10.9c-0.1-0.11-0.15-0.18-0.21-0.22c-0.16-0.11-0.32-0.21-0.49-0.31c-1.38-0.84-2.87-1.28-4.5-1.17
	c-0.82,0.06-1.6,0.27-2.21,0.83c-1.02,0.93-0.78,1.98,0.1,2.92c0.57,0.61,1.19,1.17,1.76,1.78c0.41,0.43,0.42,1.09,0.02,1.39
	c-0.27,0.21-0.59,0.4-0.92,0.46c-1.51,0.27-2.79-0.26-3.93-1.22c-0.27-0.23-0.54-0.46-0.82-0.71c-0.24,0.39-0.49,0.75-0.7,1.13
	c-0.32,0.55-0.29,0.62,0.26,0.94c0.95,0.57,1.94,1.03,3.02,1.27c1.64,0.37,3.25,0.41,4.69-0.62c0.78-0.55,1.38-1.44,0.99-2.34
	c-0.21-0.5-0.55-0.96-0.91-1.37c-0.57-0.64-1.21-1.22-1.81-1.83c-0.24-0.25-0.24-0.66,0-0.87c0.34-0.31,0.72-0.48,1.19-0.48
	c0.69,0.01,1.34,0.16,1.93,0.51c0.55,0.33,1.08,0.7,1.64,1.06C56.48,11.68,56.78,11.3,57.09,10.9z M107.87,34.26
	c0.88-2.63,1.75-5.21,2.63-7.83c-0.83-0.24-1.6-0.47-2.37-0.69c-0.24,0.62-0.46,1.18-0.66,1.74c-0.58,1.62-1.15,3.25-1.71,4.88
	c-0.23,0.66-0.41,1.33-0.62,2c-0.07,0.22-0.18,0.43-0.28,0.68c1.78,0.54,3.51,1.07,5.23,1.6c1.03,0.31,2.05,0.64,3.08,0.94
	c0.13,0.04,0.41-0.01,0.44-0.08c0.16-0.44,0.26-0.91,0.39-1.37C111.93,35.49,109.92,34.88,107.87,34.26z M14.9,18.52
	c-0.03-0.03-0.06-0.05-0.08-0.08c-0.6,0.36-1.19,0.75-1.81,1.09c-1.53,0.83-3.17,1.08-4.87,0.72c-0.52-0.11-1.03-0.35-1.32-0.87
	c-0.33-0.58-0.63-1.17-1.02-1.71c-0.25-0.35-0.58-0.77-0.96-0.87c-0.46-0.13-1.02-0.03-1.51,0.08c-0.53,0.12-0.81,0.53-0.84,1.08
	c-0.01,0.29,0.01,0.59,0.07,0.88c0.21,0.88,0.78,1.53,1.44,2.12c0.71,0.64,1.53,1.07,2.44,1.29c2.1,0.5,4.01,0.02,5.75-1.22
	c0.37-0.27,0.75-0.54,1.08-0.86C13.83,19.62,14.36,19.06,14.9,18.52z M86.65,29.43c0.8,0.25,1.52,0.48,2.25,0.69
	c0.08,0.02,0.25-0.07,0.29-0.15c0.52-1.13,1.04-2.26,1.54-3.4c0.4-0.92,0.78-1.85,1.18-2.76c0.36-0.83,0.74-1.66,1.13-2.55
	c-0.75-0.23-1.43-0.44-2.12-0.63c-0.06-0.02-0.19,0.09-0.23,0.17c-0.35,0.68-0.7,1.37-1.02,2.06c-0.66,1.42-1.3,2.85-1.95,4.28
	C87.36,27.87,87.02,28.62,86.65,29.43z M28.04,12.81c-0.79,0.7-0.83,1.59-0.22,2.28c0.49,0.56,1.13,0.79,1.83,0.89
	c1.47,0.21,2.85,0.03,4.04-0.98c0.78-0.66,0.78-1.97-0.08-2.55c-0.36-0.24-0.76-0.45-1.17-0.57c-1.4-0.4-2.75-0.22-4.03,0.51
	c0.04,0.06,0.05,0.11,0.08,0.13c0.08,0.06,0.17,0.1,0.23,0.13c1.33-0.79,2.68-1.02,4.08-0.33c0.91,0.44,0.98,1.78,0.15,2.37
	c-1.14,0.81-2.39,1-3.67,0.48c-0.87-0.36-1.22-0.8-1.12-1.68C28.17,13.29,28.09,13.08,28.04,12.81z M20.22,12.18
	c0.33-0.27,0.66-0.53,0.99-0.8c1.1-0.92,2.33-1.4,3.78-1.18c0.14,0.02,0.29-0.03,0.43-0.05c0-0.04,0-0.08,0-0.12
	c-0.23-0.14-0.45-0.29-0.68-0.43c-0.77-0.46-1.81-0.41-2.52,0.14C21.38,10.4,20.68,11.19,20.22,12.18z"/>
<path class="st1" d="M26.64,11.44c-0.48,0.22-0.94,0.41-1.39,0.63c-0.42,0.2-0.46,0.57-0.36,0.96c0.18,0.67,0.39,1.33,0.57,2
	c0.42,1.6,0.83,3.19,1.25,4.79c0.3,1.13,0.59,2.27,0.89,3.4c0.28,1.07,0.57,2.14,0.86,3.21c0.26,0.98,0.52,1.97,0.79,2.95
	c0.15,0.56,0.32,1.11,0.49,1.66c0.19,0.61,0.72,0.82,1.25,1c1.92,0.66,3.84,1.3,5.77,1.94c2.39,0.8,4.79,1.58,7.18,2.38
	c1.78,0.59,3.55,1.2,5.33,1.79c1.84,0.61,3.68,1.22,5.52,1.84c1.86,0.62,3.73,1.25,5.59,1.86c1.89,0.63,3.78,1.24,5.67,1.87
	c1.56,0.52,3.11,1.06,4.66,1.58c2.4,0.8,4.81,1.59,7.21,2.39c1.78,0.59,3.55,1.2,5.33,1.79c2.48,0.82,4.96,1.64,7.43,2.46
	c1.57,0.52,3.13,1.07,4.7,1.59c2.4,0.8,4.81,1.59,7.21,2.39c1.47,0.49,2.94,0.99,4.41,1.48c1.25,0.42,2.49,0.88,3.75,1.25
	c0.35,0.11,0.8,0.04,1.16-0.06c0.19-0.06,0.39-0.34,0.46-0.57c0.37-1.26,0.7-2.53,1.05-3.8c0.3-1.11,0.61-2.21,0.91-3.32
	c0.27-0.99,0.55-1.99,0.82-2.98c0.3-1.09,0.59-2.19,0.88-3.28c0.28-1.02,0.56-2.04,0.84-3.05c0.26-0.94,0.53-1.88,0.79-2.83
	c0.28-1.01,0.55-2.01,0.83-3.02c0.29-1.06,0.58-2.11,0.88-3.17c0.29-1.03,0.57-2.06,0.85-3.09c0.28-1.04,0.56-2.09,0.84-3.13
	c0.02-0.09,0.03-0.19,0.08-0.26c0.55-0.82-0.11-1.46-0.72-1.65c-2.59-0.77-5.19-1.5-7.79-2.25c-1.79-0.52-3.57-1.05-5.36-1.57
	c-3.04-0.88-6.09-1.76-9.13-2.64c-2.07-0.6-4.14-1.22-6.22-1.82c-3.02-0.88-6.04-1.74-9.06-2.62c-1.5-0.44-3-0.89-4.5-1.32
	c-3.32-0.96-6.63-1.92-9.95-2.88C65.7,8.55,63,7.77,60.31,6.98c-2.69-0.78-5.41-1.51-8.07-2.38c-1.26-0.41-2.36-0.13-3.51,0.23
	c-3.56,1.1-7.12,2.18-10.68,3.26c-2.81,0.85-5.62,1.69-8.43,2.53c-0.57,0.17-1.15,0.32-1.71,0.52c-0.39,0.14-0.61,0.03-0.76-0.37
	c0.72-0.22,1.43-0.45,2.15-0.67c1.9-0.58,3.81-1.16,5.72-1.73c2.39-0.71,4.78-1.42,7.17-2.14c1.81-0.54,3.61-1.11,5.42-1.65
	c0.83-0.25,1.66-0.49,2.51-0.68c0.66-0.15,1.33-0.08,1.99,0.12c2.39,0.7,4.8,1.38,7.19,2.07c1.83,0.53,3.65,1.07,5.47,1.6
	c2.12,0.61,4.25,1.21,6.37,1.83c1.82,0.53,3.64,1.08,5.47,1.61c1.8,0.53,3.6,1.04,5.4,1.56c1.9,0.55,3.8,1.1,5.7,1.65
	c2.37,0.69,4.74,1.37,7.12,2.06c2.15,0.62,4.29,1.26,6.44,1.88c2.26,0.66,4.52,1.3,6.78,1.95c2.43,0.7,4.87,1.41,7.3,2.12
	c1.55,0.45,3.1,0.91,4.65,1.37c0.39,0.12,0.82,0.2,1.16,0.41c1.06,0.65,1.31,1.21,0.86,2.32c-0.3,0.74-0.42,1.54-0.62,2.32
	c-0.33,1.27-0.66,2.54-0.99,3.81c-0.25,0.94-0.51,1.89-0.77,2.83c-0.31,1.16-0.62,2.31-0.93,3.47c-0.28,1.06-0.57,2.11-0.86,3.17
	c-0.26,0.94-0.52,1.88-0.77,2.83c-0.28,1.04-0.57,2.09-0.85,3.13c-0.28,1.04-0.54,2.09-0.82,3.14c-0.3,1.12-0.6,2.24-0.91,3.35
	c-0.28,1.03-0.55,2.06-0.84,3.09c-0.1,0.34-0.22,0.68-0.35,1.01c-0.28,0.66-0.87,0.84-1.5,0.95c-0.66,0.11-1.28-0.13-1.89-0.34
	c-3.65-1.22-7.31-2.44-10.96-3.66c-2.73-0.91-5.47-1.84-8.2-2.75c-3.97-1.33-7.95-2.66-11.92-3.98c-3.1-1.04-6.2-2.07-9.31-3.11
	c-2.23-0.75-4.46-1.5-6.69-2.24c-3.15-1.05-6.3-2.11-9.45-3.16c-3.52-1.17-7.04-2.34-10.56-3.51c-2.99-1-5.98-2-8.97-3.01
	c-1.21-0.41-2.44-0.78-3.64-1.23c-0.76-0.29-1.33-0.78-1.52-1.66c-0.25-1.17-0.6-2.32-0.9-3.48c-0.26-1.02-0.52-2.05-0.78-3.07
	c-0.31-1.2-0.62-2.39-0.93-3.59c-0.27-1.02-0.54-2.04-0.81-3.06c-0.3-1.15-0.6-2.29-0.9-3.44c-0.08-0.3-0.19-0.58-0.28-0.88
	c-0.31-1.01,0.04-1.37,0.99-1.94c0.25-0.15,0.55-0.22,0.84-0.3C26.37,11.01,26.37,11.02,26.64,11.44z"/>
<path class="st1" d="M98.1,44.17c0.35,0.69,0.69,1.38,1.04,2.08c0.03,0.06,0.06,0.12,0.09,0.17c0.47,1.01,0.95,2.03,1.43,3.04
	c0.16,0.33,0.33,0.65,0.5,0.98c-0.02,0.03-0.04,0.05-0.07,0.08c-0.42-0.13-0.85-0.26-1.27-0.4c-0.54-0.17-1.08-0.34-1.62-0.54
	c-0.11-0.04-0.22-0.17-0.27-0.29c-0.42-0.9-0.83-1.8-1.25-2.7c-0.45-0.98-0.91-1.96-1.37-2.93c-0.04-0.09-0.14-0.17-0.24-0.22
	c-0.13-0.06-0.28-0.07-0.41-0.11c-0.76-0.28-0.67-0.27-0.95,0.49c-0.43,1.16-0.87,2.31-1.3,3.47c-0.08,0.22-0.19,0.34-0.46,0.25
	c-0.75-0.25-1.5-0.48-2.3-0.74c0.1-0.21,0.2-0.39,0.28-0.58c0.46-1.18,0.89-2.36,1.36-3.53c0.56-1.42,1.15-2.83,1.72-4.25
	c0.26-0.63,0.52-1.26,0.76-1.89c0.09-0.24,0.21-0.28,0.44-0.2c1.65,0.55,3.32,1.08,4.96,1.66c1.02,0.36,1.9,0.98,2.62,1.8
	c0.8,0.89,0.86,2.27,0.12,3.19c-0.48,0.59-1.16,0.91-1.9,1.03C99.39,44.09,98.76,44.11,98.1,44.17z M94.53,41.71
	c0.65,0.2,1.23,0.41,1.83,0.57c0.72,0.18,1.45,0.32,2.19,0.16c0.58-0.12,1.04-0.39,1.18-1.03c0.13-0.61-0.07-1.13-0.55-1.48
	c-0.99-0.72-2.18-1.04-3.39-1.42C95.37,39.58,94.96,40.62,94.53,41.71z"/>
<path class="st1" d="M51.13,34.08c-1.75-0.02-3.39-0.42-4.82-1.45c-0.64-0.46-1.16-1.03-1.55-1.75c-0.65-1.19-0.66-2.39-0.12-3.57
	c0.48-1.05,1.24-1.9,2.2-2.58c1.12-0.79,2.38-1.19,3.7-1.39c1.75-0.27,3.46-0.08,5.1,0.6c1.02,0.42,1.86,1.06,2.51,1.97
	c1,1.4,1.02,2.88,0.31,4.35c-0.55,1.15-1.48,2.01-2.59,2.63C54.4,33.71,52.81,34.08,51.13,34.08z M51.15,32.19
	c0.91,0.02,1.78-0.2,2.59-0.57c1.29-0.59,2.24-1.51,2.56-2.94c0.19-0.81-0.01-1.59-0.53-2.23c-0.57-0.7-1.35-1.11-2.23-1.31
	c-1.94-0.46-3.7-0.1-5.22,1.2c-0.39,0.34-0.7,0.78-0.98,1.22c-0.9,1.36-0.39,2.92,0.73,3.72C48.98,31.92,50.04,32.17,51.15,32.19z"
	/>
<path class="st1" d="M83.18,32.88c2.7,0.85,5.36,1.69,8.07,2.55c-0.18,0.49-0.33,0.94-0.52,1.37c-0.04,0.08-0.26,0.15-0.36,0.11
	c-1.19-0.36-2.37-0.75-3.55-1.12c-0.64-0.2-1.28-0.39-1.98-0.6c-0.37,0.81-0.72,1.6-1.08,2.39c1.64,0.53,3.28,1.06,4.97,1.61
	c-0.2,0.51-0.37,0.99-0.58,1.45c-0.03,0.07-0.29,0.08-0.42,0.04c-1.11-0.34-2.21-0.71-3.32-1.06c-0.36-0.11-0.72-0.21-1.07-0.33
	c-0.25-0.09-0.39,0.01-0.49,0.22c-0.12,0.26-0.22,0.52-0.34,0.78c-0.28,0.62-0.56,1.23-0.87,1.91c2.03,0.66,4.03,1.3,6.1,1.96
	c-0.26,0.59-0.5,1.15-0.76,1.74c-2.88-0.94-5.72-1.87-8.62-2.83c0.16-0.3,0.32-0.55,0.44-0.82c0.48-1.05,0.96-2.11,1.44-3.16
	c0.56-1.22,1.13-2.45,1.7-3.67C82.33,34.58,82.75,33.75,83.18,32.88z"/>
<path class="st1" d="M103.77,34.7c-0.84-0.25-1.61-0.47-2.37-0.73c-0.13-0.04-0.26-0.2-0.3-0.34c-0.16-0.52-0.26-1.04-0.42-1.56
	c-0.04-0.12-0.16-0.27-0.28-0.31c-1.85-0.58-3.71-1.12-5.55-1.72c-0.48-0.16-0.72,0.15-1.03,0.34c-0.31,0.18-0.61,0.4-0.87,0.64
	c-0.23,0.21-0.45,0.23-0.73,0.14c-0.65-0.22-1.31-0.42-2.04-0.65c0.42-0.32,0.77-0.59,1.13-0.85c0.77-0.54,1.55-1.07,2.32-1.6
	c1.28-0.88,2.57-1.76,3.85-2.64c0.65-0.45,1.29-0.9,1.93-1.35c0.36-0.25,0.72-0.5,1.08-0.74c0.22-0.15,0.38-0.12,0.45,0.17
	c0.19,0.83,0.37,1.66,0.58,2.49c0.3,1.19,0.61,2.37,0.92,3.55c0.26,1.02,0.53,2.04,0.8,3.06c0.15,0.58,0.33,1.16,0.49,1.74
	C103.74,34.43,103.75,34.53,103.77,34.7z M99.42,26.24c-1.16,0.86-2.3,1.71-3.52,2.62c1.52,0.46,2.92,0.89,4.42,1.34
	C100.01,28.85,99.72,27.57,99.42,26.24z"/>
<path class="st1" d="M81.05,32.22c-0.21,0.48-0.38,0.93-0.61,1.34c-0.05,0.09-0.31,0.13-0.45,0.09c-1.73-0.53-3.45-1.09-5.18-1.63
	C74.78,32,74.74,32,74.63,31.98c-0.4,0.77-0.82,1.56-1.25,2.39c1.69,0.53,3.36,1.07,5.1,1.61c-0.21,0.48-0.4,0.93-0.61,1.36
	c-0.08,0.17-0.24,0.21-0.45,0.14c-1.47-0.49-2.95-0.96-4.42-1.45c-0.31-0.1-0.47-0.09-0.62,0.25c-0.37,0.82-0.78,1.62-1.18,2.43
	c-0.25,0.5-0.52,1-0.8,1.49c-0.05,0.09-0.21,0.2-0.28,0.17c-0.76-0.24-1.52-0.49-2.33-0.77c0.23-0.47,0.44-0.9,0.66-1.32
	c0.06-0.12,0.16-0.23,0.23-0.35c0.75-1.43,1.5-2.87,2.25-4.31c0.55-1.06,1.11-2.11,1.67-3.16c0.13-0.25,0.3-0.47,0.47-0.75
	C75.7,30.55,78.36,31.38,81.05,32.22z"/>
<path class="st1" d="M57.4,36.22c0.63-1.03,1.22-2,1.81-2.98c0.03-0.06,0.07-0.11,0.1-0.17c0.47-0.8,0.93-1.6,1.4-2.4
	c0.56-0.95,1.12-1.9,1.68-2.85c0.2-0.34,0.41-0.68,0.64-1c0.06-0.09,0.26-0.14,0.37-0.11c0.6,0.16,1.19,0.35,1.78,0.53
	c1.79,0.56,3.57,1.12,5.36,1.68c0.12,0.04,0.24,0.09,0.43,0.16c-0.24,0.48-0.46,0.94-0.71,1.38c-0.03,0.06-0.24,0.06-0.34,0.03
	c-1.16-0.36-2.32-0.73-3.47-1.1c-0.59-0.19-1.18-0.38-1.8-0.57c-0.46,0.78-0.92,1.55-1.38,2.33c1.66,0.52,3.29,1.04,5.01,1.58
	c-0.3,0.52-0.56,0.99-0.85,1.44c-0.03,0.05-0.21,0.05-0.31,0.02c-1.44-0.46-2.88-0.92-4.31-1.4c-0.33-0.11-0.49-0.06-0.66,0.26
	c-0.65,1.2-1.34,2.37-2.01,3.56c-0.17,0.3-0.36,0.45-0.76,0.29C58.75,36.62,58.1,36.44,57.4,36.22z"/>
<path class="st1" d="M85.85,26.16c-0.37,0.67-0.69,1.27-1.03,1.85c-0.05,0.09-0.23,0.14-0.36,0.16c-2.35,0.23-4.56-0.16-6.55-1.49
	c-1.12-0.75-1.99-1.69-2.23-3.06c-0.18-1.01,0.02-1.94,0.58-2.84c1.01-1.61,2.56-2.27,4.31-2.57c2.42-0.41,4.67,0.12,6.75,1.4
	c0.31,0.19,0.59,0.41,0.86,0.65c0.07,0.06,0.12,0.27,0.07,0.35c-0.28,0.47-0.6,0.92-0.92,1.41c-0.08-0.07-0.18-0.11-0.23-0.19
	c-0.72-1.06-1.74-1.65-2.97-1.94c-1.21-0.29-2.41-0.31-3.59,0.12c-1.1,0.4-1.91,1.12-2.28,2.24c-0.46,1.38,0.23,2.47,1.25,3.17
	c1.77,1.21,3.73,1.33,5.76,0.85C85.43,26.25,85.59,26.22,85.85,26.16z"/>
<path class="st1" d="M76.86,16.44c-0.2,0.43-0.35,0.8-0.54,1.15c-0.04,0.08-0.24,0.14-0.34,0.12c-1.53-0.45-3.05-0.9-4.57-1.38
	c-0.3-0.1-0.45-0.07-0.6,0.23c-0.27,0.55-0.6,1.07-0.92,1.63c1.48,0.45,2.94,0.9,4.43,1.35c-0.21,0.42-0.39,0.79-0.6,1.14
	c-0.05,0.08-0.27,0.13-0.38,0.1c-1.25-0.36-2.51-0.74-3.75-1.13c-0.37-0.12-0.57-0.06-0.75,0.3c-0.34,0.66-0.75,1.29-1.16,1.98
	c1.82,0.56,3.59,1.11,5.4,1.67c-0.26,0.45-0.49,0.88-0.74,1.29c-0.03,0.05-0.21,0.06-0.3,0.03c-0.97-0.29-1.93-0.59-2.89-0.88
	c-1.4-0.43-2.79-0.85-4.19-1.28c-0.09-0.03-0.18-0.08-0.33-0.14c0.23-0.36,0.46-0.68,0.66-1.02c0.74-1.26,1.48-2.53,2.22-3.79
	c0.56-0.94,1.13-1.87,1.7-2.8c0.11-0.18,0.23-0.37,0.38-0.53c0.06-0.07,0.22-0.09,0.32-0.07c1.69,0.49,3.37,0.99,5.05,1.49
	C75.55,16.07,76.18,16.24,76.86,16.44z"/>
<path class="st1" d="M54.43,19.52c0.48-0.69,0.9-1.32,1.33-1.94c0.04-0.06,0.09-0.12,0.13-0.19c0.75-1.15,1.5-2.31,2.26-3.45
	c0.51-0.77,1.03-1.53,1.57-2.28c0.07-0.1,0.29-0.19,0.4-0.15c1.65,0.54,3.39,0.83,4.95,1.64c0.9,0.47,1.65,1.06,1.64,2.23
	c-0.01,0.9-0.71,1.65-1.67,2.02c-1.56,0.6-3.13,0.4-4.69,0c-0.44-0.11-0.87-0.26-1.3-0.37c-0.1-0.02-0.27,0.01-0.32,0.08
	c-0.22,0.27-0.41,0.56-0.59,0.85c-0.42,0.66-0.83,1.33-1.26,1.99c-0.06,0.1-0.23,0.21-0.32,0.19
	C55.86,19.95,55.19,19.74,54.43,19.52z M59.63,15.7c1.12,0.3,2.18,0.69,3.33,0.57c0.48-0.05,0.89-0.21,1.23-0.56
	c0.34-0.34,0.33-0.81-0.01-1.15c-0.63-0.62-1.45-0.81-2.24-1.09c-0.22-0.08-0.46-0.19-0.66-0.15c-0.13,0.02-0.23,0.28-0.34,0.44
	c-0.01,0.02-0.04,0.04-0.05,0.06C60.48,14.43,60.07,15.05,59.63,15.7z"/>
<path class="st1" d="M57.09,10.9c-0.31,0.4-0.61,0.78-0.89,1.16c-0.56-0.37-1.09-0.73-1.64-1.06c-0.59-0.35-1.24-0.5-1.93-0.51
	c-0.47-0.01-0.85,0.17-1.19,0.48c-0.23,0.21-0.24,0.63,0,0.87c0.6,0.61,1.24,1.19,1.81,1.83c0.36,0.41,0.7,0.88,0.91,1.37
	c0.38,0.9-0.21,1.79-0.99,2.34c-1.44,1.03-3.06,0.98-4.69,0.62c-1.08-0.24-2.07-0.7-3.02-1.27c-0.55-0.33-0.57-0.39-0.26-0.94
	c0.22-0.38,0.46-0.74,0.7-1.13c0.28,0.24,0.55,0.48,0.82,0.71c1.14,0.95,2.42,1.49,3.93,1.22c0.33-0.06,0.65-0.25,0.92-0.46
	c0.4-0.31,0.38-0.97-0.02-1.39c-0.57-0.6-1.19-1.17-1.76-1.78c-0.88-0.94-1.12-1.99-0.1-2.92c0.61-0.55,1.39-0.77,2.21-0.83
	c1.63-0.11,3.12,0.33,4.5,1.17c0.16,0.1,0.33,0.2,0.49,0.31C56.94,10.72,56.98,10.79,57.09,10.9z"/>
<path class="st1" d="M107.87,34.26c2.05,0.62,4.06,1.24,6.13,1.86c-0.13,0.47-0.23,0.93-0.39,1.37c-0.03,0.07-0.3,0.12-0.44,0.08
	c-1.03-0.3-2.05-0.63-3.08-0.94c-1.73-0.53-3.46-1.06-5.23-1.6c0.1-0.24,0.21-0.45,0.28-0.68c0.21-0.66,0.4-1.34,0.62-2
	c0.56-1.63,1.13-3.25,1.71-4.88c0.2-0.57,0.43-1.13,0.66-1.74c0.76,0.22,1.54,0.45,2.37,0.69
	C109.62,29.04,108.75,31.63,107.87,34.26z"/>
<path class="st2" d="M14.9,18.52c-0.54,0.54-1.07,1.1-1.63,1.63c-0.33,0.31-0.71,0.59-1.08,0.86c-1.73,1.25-3.65,1.73-5.75,1.22
	c-0.91-0.22-1.72-0.65-2.44-1.29c-0.66-0.6-1.23-1.24-1.44-2.12c-0.07-0.28-0.09-0.59-0.07-0.88c0.02-0.55,0.31-0.96,0.84-1.08
	c0.49-0.11,1.05-0.21,1.51-0.08c0.37,0.11,0.7,0.52,0.96,0.87c0.38,0.54,0.69,1.13,1.02,1.71c0.29,0.52,0.8,0.76,1.32,0.87
	c1.7,0.36,3.34,0.11,4.87-0.72c0.62-0.33,1.21-0.72,1.81-1.09C14.84,18.46,14.87,18.49,14.9,18.52z"/>
<path class="st1" d="M86.65,29.43c0.37-0.81,0.72-1.55,1.06-2.3c0.65-1.43,1.29-2.85,1.95-4.28c0.32-0.69,0.67-1.38,1.02-2.06
	c0.04-0.08,0.17-0.19,0.23-0.17c0.69,0.19,1.38,0.41,2.12,0.63c-0.4,0.89-0.77,1.71-1.13,2.55c-0.4,0.92-0.77,1.85-1.18,2.76
	c-0.5,1.14-1.02,2.27-1.54,3.4c-0.04,0.08-0.21,0.17-0.29,0.15C88.17,29.91,87.44,29.67,86.65,29.43z"/>
<path class="st1" d="M28.04,12.81c0.05,0.27,0.13,0.48,0.11,0.68c-0.09,0.88,0.25,1.32,1.12,1.68c1.28,0.53,2.54,0.33,3.67-0.48
	c0.83-0.59,0.76-1.93-0.15-2.37c-1.4-0.68-2.75-0.46-4.08,0.33c-0.06-0.03-0.15-0.08-0.23-0.13c-0.03-0.02-0.04-0.06-0.08-0.13
	c1.28-0.73,2.63-0.9,4.03-0.51c0.41,0.12,0.81,0.33,1.17,0.57c0.86,0.57,0.86,1.88,0.08,2.55c-1.19,1.01-2.57,1.18-4.04,0.98
	c-0.7-0.1-1.34-0.34-1.83-0.89C27.21,14.4,27.24,13.51,28.04,12.81z"/>
<path class="st2" d="M20.22,12.18c0.45-0.99,1.16-1.78,2.01-2.44c0.7-0.55,1.75-0.59,2.52-0.14c0.23,0.14,0.45,0.29,0.68,0.43
	c0,0.04,0,0.08,0,0.12c-0.14,0.02-0.29,0.07-0.43,0.05c-1.46-0.22-2.69,0.26-3.78,1.18C20.89,11.66,20.55,11.92,20.22,12.18z"/>
<path class="st0" d="M94.53,41.71c0.43-1.08,0.84-2.13,1.26-3.19c1.22,0.38,2.4,0.69,3.39,1.42c0.48,0.35,0.68,0.87,0.55,1.48
	c-0.14,0.64-0.6,0.9-1.18,1.03c-0.74,0.16-1.47,0.02-2.19-0.16C95.76,42.12,95.18,41.91,94.53,41.71z"/>
<path class="st0" d="M51.15,32.19c-1.11-0.02-2.17-0.27-3.07-0.92c-1.12-0.8-1.63-2.36-0.73-3.72c0.29-0.44,0.59-0.88,0.98-1.22
	c1.52-1.3,3.28-1.66,5.22-1.2c0.87,0.21,1.66,0.61,2.23,1.31c0.52,0.64,0.71,1.42,0.53,2.23c-0.33,1.43-1.27,2.35-2.56,2.94
	C52.93,31.99,52.06,32.21,51.15,32.19z"/>
<path class="st0" d="M99.42,26.24c0.3,1.33,0.59,2.61,0.89,3.97c-1.5-0.46-2.9-0.88-4.42-1.34C97.12,27.95,98.26,27.1,99.42,26.24z"
	/>
<path class="st0" d="M59.63,15.7c0.44-0.66,0.85-1.27,1.26-1.89c0.01-0.02,0.04-0.04,0.05-0.06c0.11-0.15,0.2-0.42,0.34-0.44
	c0.21-0.04,0.45,0.08,0.66,0.15c0.79,0.27,1.61,0.47,2.24,1.09c0.34,0.34,0.34,0.81,0.01,1.15c-0.34,0.35-0.76,0.52-1.23,0.56
	C61.81,16.4,60.75,16.01,59.63,15.7z"/>
</svg>
